<mxfile host="app.diagrams.net" agent="Mozilla/5.0 (X11; Linux x86_64; rv:128.0) Gecko/20100101 Firefox/128.0" version="26.1.0">
  <diagram name="Página-1" id="bjhu3zyVDLnvNsSxfU65">
    <mxGraphModel dx="1434" dy="791" grid="1" gridSize="10" guides="1" tooltips="1" connect="1" arrows="1" fold="1" page="1" pageScale="1" pageWidth="827" pageHeight="1169" math="0" shadow="0">
      <root>
        <mxCell id="0" />
        <mxCell id="1" parent="0" />
        <mxCell id="Z9TVlHVPDBwcRvWiJy7N-2" value="Stop" style="strokeWidth=2;html=1;shape=mxgraph.flowchart.terminator;whiteSpace=wrap;" vertex="1" parent="1">
          <mxGeometry x="180" y="1450" width="100" height="60" as="geometry" />
        </mxCell>
        <mxCell id="Z9TVlHVPDBwcRvWiJy7N-14" style="edgeStyle=orthogonalEdgeStyle;rounded=0;orthogonalLoop=1;jettySize=auto;html=1;exitX=0.5;exitY=1;exitDx=0;exitDy=0;exitPerimeter=0;entryX=0.5;entryY=0;entryDx=0;entryDy=0;" edge="1" parent="1" source="Z9TVlHVPDBwcRvWiJy7N-5" target="Z9TVlHVPDBwcRvWiJy7N-7">
          <mxGeometry relative="1" as="geometry" />
        </mxCell>
        <mxCell id="Z9TVlHVPDBwcRvWiJy7N-5" value="Start" style="strokeWidth=2;html=1;shape=mxgraph.flowchart.terminator;whiteSpace=wrap;" vertex="1" parent="1">
          <mxGeometry x="180.25" y="80" width="100" height="60" as="geometry" />
        </mxCell>
        <mxCell id="Z9TVlHVPDBwcRvWiJy7N-78" style="edgeStyle=orthogonalEdgeStyle;rounded=0;orthogonalLoop=1;jettySize=auto;html=1;exitX=0.5;exitY=1;exitDx=0;exitDy=0;entryX=0.5;entryY=0;entryDx=0;entryDy=0;" edge="1" parent="1" source="Z9TVlHVPDBwcRvWiJy7N-7" target="Z9TVlHVPDBwcRvWiJy7N-44">
          <mxGeometry relative="1" as="geometry" />
        </mxCell>
        <mxCell id="Z9TVlHVPDBwcRvWiJy7N-7" value="&lt;div&gt;&lt;br&gt;&lt;/div&gt;&lt;div&gt;nome_passageiro&lt;/div&gt;cidade_destino&lt;br&gt;distancia&lt;br&gt;custo_aluguel" style="shape=internalStorage;whiteSpace=wrap;html=1;dx=15;dy=15;rounded=1;arcSize=8;strokeWidth=2;" vertex="1" parent="1">
          <mxGeometry x="164" y="170" width="132.5" height="90" as="geometry" />
        </mxCell>
        <mxCell id="Z9TVlHVPDBwcRvWiJy7N-12" value="&quot;Cidade não atendida pela empresa&quot;" style="strokeWidth=2;html=1;shape=mxgraph.flowchart.display;whiteSpace=wrap;align=center;" vertex="1" parent="1">
          <mxGeometry x="300" y="1310" width="100" height="60" as="geometry" />
        </mxCell>
        <mxCell id="Z9TVlHVPDBwcRvWiJy7N-13" value="EXERC005 - CAR RENTAL COST CALCULATION FOR FIXED DISTANCES" style="text;html=1;align=left;verticalAlign=middle;whiteSpace=wrap;rounded=0;fontStyle=1" vertex="1" parent="1">
          <mxGeometry x="40" y="40" width="760" height="30" as="geometry" />
        </mxCell>
        <mxCell id="Z9TVlHVPDBwcRvWiJy7N-97" style="edgeStyle=orthogonalEdgeStyle;rounded=0;orthogonalLoop=1;jettySize=auto;html=1;exitX=0.5;exitY=1;exitDx=0;exitDy=0;exitPerimeter=0;" edge="1" parent="1" source="Z9TVlHVPDBwcRvWiJy7N-36" target="Z9TVlHVPDBwcRvWiJy7N-96">
          <mxGeometry relative="1" as="geometry" />
        </mxCell>
        <mxCell id="Z9TVlHVPDBwcRvWiJy7N-36" value="" style="verticalLabelPosition=bottom;verticalAlign=top;html=1;shape=mxgraph.flowchart.on-page_reference;" vertex="1" parent="1">
          <mxGeometry x="215.25" y="1040" width="30" height="30" as="geometry" />
        </mxCell>
        <mxCell id="Z9TVlHVPDBwcRvWiJy7N-76" style="edgeStyle=orthogonalEdgeStyle;rounded=0;orthogonalLoop=1;jettySize=auto;html=1;exitX=0.5;exitY=1;exitDx=0;exitDy=0;" edge="1" parent="1" source="Z9TVlHVPDBwcRvWiJy7N-44" target="Z9TVlHVPDBwcRvWiJy7N-45">
          <mxGeometry relative="1" as="geometry" />
        </mxCell>
        <mxCell id="Z9TVlHVPDBwcRvWiJy7N-44" value="distancia = 0" style="rounded=1;whiteSpace=wrap;html=1;absoluteArcSize=1;arcSize=14;strokeWidth=2;" vertex="1" parent="1">
          <mxGeometry x="180.25" y="290" width="100" height="40" as="geometry" />
        </mxCell>
        <mxCell id="Z9TVlHVPDBwcRvWiJy7N-77" style="edgeStyle=orthogonalEdgeStyle;rounded=0;orthogonalLoop=1;jettySize=auto;html=1;exitX=0.5;exitY=1;exitDx=0;exitDy=0;" edge="1" parent="1" source="Z9TVlHVPDBwcRvWiJy7N-45" target="Z9TVlHVPDBwcRvWiJy7N-47">
          <mxGeometry relative="1" as="geometry" />
        </mxCell>
        <mxCell id="Z9TVlHVPDBwcRvWiJy7N-45" value="&lt;div&gt;&lt;br&gt;&lt;/div&gt;&lt;div&gt;nome_passageiro&lt;/div&gt;" style="html=1;strokeWidth=2;shape=manualInput;whiteSpace=wrap;rounded=1;size=26;arcSize=11;" vertex="1" parent="1">
          <mxGeometry x="180.25" y="360" width="100" height="60" as="geometry" />
        </mxCell>
        <mxCell id="Z9TVlHVPDBwcRvWiJy7N-79" style="edgeStyle=orthogonalEdgeStyle;rounded=0;orthogonalLoop=1;jettySize=auto;html=1;exitX=0.5;exitY=1;exitDx=0;exitDy=0;" edge="1" parent="1" source="Z9TVlHVPDBwcRvWiJy7N-47" target="Z9TVlHVPDBwcRvWiJy7N-48">
          <mxGeometry relative="1" as="geometry" />
        </mxCell>
        <mxCell id="Z9TVlHVPDBwcRvWiJy7N-47" value="&lt;div&gt;&lt;br&gt;&lt;/div&gt;&lt;div&gt;cidade_destino&lt;br&gt;&lt;/div&gt;" style="html=1;strokeWidth=2;shape=manualInput;whiteSpace=wrap;rounded=1;size=26;arcSize=11;" vertex="1" parent="1">
          <mxGeometry x="180.25" y="440" width="100" height="60" as="geometry" />
        </mxCell>
        <mxCell id="Z9TVlHVPDBwcRvWiJy7N-56" style="edgeStyle=orthogonalEdgeStyle;rounded=0;orthogonalLoop=1;jettySize=auto;html=1;exitX=1;exitY=0.5;exitDx=0;exitDy=0;exitPerimeter=0;entryX=0;entryY=0.5;entryDx=0;entryDy=0;" edge="1" parent="1" source="Z9TVlHVPDBwcRvWiJy7N-48" target="Z9TVlHVPDBwcRvWiJy7N-52">
          <mxGeometry relative="1" as="geometry" />
        </mxCell>
        <mxCell id="Z9TVlHVPDBwcRvWiJy7N-60" value="yes" style="edgeLabel;html=1;align=center;verticalAlign=middle;resizable=0;points=[];" vertex="1" connectable="0" parent="Z9TVlHVPDBwcRvWiJy7N-56">
          <mxGeometry x="0.0087" y="-3" relative="1" as="geometry">
            <mxPoint y="-4" as="offset" />
          </mxGeometry>
        </mxCell>
        <mxCell id="Z9TVlHVPDBwcRvWiJy7N-64" style="edgeStyle=orthogonalEdgeStyle;rounded=0;orthogonalLoop=1;jettySize=auto;html=1;exitX=0.5;exitY=1;exitDx=0;exitDy=0;exitPerimeter=0;" edge="1" parent="1" source="Z9TVlHVPDBwcRvWiJy7N-48" target="Z9TVlHVPDBwcRvWiJy7N-49">
          <mxGeometry relative="1" as="geometry" />
        </mxCell>
        <mxCell id="Z9TVlHVPDBwcRvWiJy7N-73" value="no" style="edgeLabel;html=1;align=center;verticalAlign=middle;resizable=0;points=[];" vertex="1" connectable="0" parent="Z9TVlHVPDBwcRvWiJy7N-64">
          <mxGeometry x="0.5" relative="1" as="geometry">
            <mxPoint y="-6" as="offset" />
          </mxGeometry>
        </mxCell>
        <mxCell id="Z9TVlHVPDBwcRvWiJy7N-48" value="cidade_destino = &quot;Vitória&quot;" style="strokeWidth=2;html=1;shape=mxgraph.flowchart.decision;whiteSpace=wrap;" vertex="1" parent="1">
          <mxGeometry x="170.25" y="530" width="120" height="100" as="geometry" />
        </mxCell>
        <mxCell id="Z9TVlHVPDBwcRvWiJy7N-57" style="edgeStyle=orthogonalEdgeStyle;rounded=0;orthogonalLoop=1;jettySize=auto;html=1;exitX=1;exitY=0.5;exitDx=0;exitDy=0;exitPerimeter=0;entryX=0;entryY=0.5;entryDx=0;entryDy=0;" edge="1" parent="1" source="Z9TVlHVPDBwcRvWiJy7N-49" target="Z9TVlHVPDBwcRvWiJy7N-53">
          <mxGeometry relative="1" as="geometry" />
        </mxCell>
        <mxCell id="Z9TVlHVPDBwcRvWiJy7N-61" value="yes" style="edgeLabel;html=1;align=center;verticalAlign=middle;resizable=0;points=[];" vertex="1" connectable="0" parent="Z9TVlHVPDBwcRvWiJy7N-57">
          <mxGeometry x="-0.0087" y="2" relative="1" as="geometry">
            <mxPoint as="offset" />
          </mxGeometry>
        </mxCell>
        <mxCell id="Z9TVlHVPDBwcRvWiJy7N-65" style="edgeStyle=orthogonalEdgeStyle;rounded=0;orthogonalLoop=1;jettySize=auto;html=1;exitX=0.5;exitY=1;exitDx=0;exitDy=0;exitPerimeter=0;" edge="1" parent="1" source="Z9TVlHVPDBwcRvWiJy7N-49" target="Z9TVlHVPDBwcRvWiJy7N-50">
          <mxGeometry relative="1" as="geometry" />
        </mxCell>
        <mxCell id="Z9TVlHVPDBwcRvWiJy7N-74" value="no" style="edgeLabel;html=1;align=center;verticalAlign=middle;resizable=0;points=[];" vertex="1" connectable="0" parent="Z9TVlHVPDBwcRvWiJy7N-65">
          <mxGeometry x="0.2" y="-1" relative="1" as="geometry">
            <mxPoint as="offset" />
          </mxGeometry>
        </mxCell>
        <mxCell id="Z9TVlHVPDBwcRvWiJy7N-49" value="cidade_destino = &quot;Muriaé&quot;" style="strokeWidth=2;html=1;shape=mxgraph.flowchart.decision;whiteSpace=wrap;" vertex="1" parent="1">
          <mxGeometry x="170.25" y="660" width="120" height="100" as="geometry" />
        </mxCell>
        <mxCell id="Z9TVlHVPDBwcRvWiJy7N-58" style="edgeStyle=orthogonalEdgeStyle;rounded=0;orthogonalLoop=1;jettySize=auto;html=1;exitX=1;exitY=0.5;exitDx=0;exitDy=0;exitPerimeter=0;entryX=0;entryY=0.5;entryDx=0;entryDy=0;" edge="1" parent="1" source="Z9TVlHVPDBwcRvWiJy7N-50" target="Z9TVlHVPDBwcRvWiJy7N-54">
          <mxGeometry relative="1" as="geometry" />
        </mxCell>
        <mxCell id="Z9TVlHVPDBwcRvWiJy7N-62" value="yes" style="edgeLabel;html=1;align=center;verticalAlign=middle;resizable=0;points=[];" vertex="1" connectable="0" parent="Z9TVlHVPDBwcRvWiJy7N-58">
          <mxGeometry x="-0.0087" y="1" relative="1" as="geometry">
            <mxPoint as="offset" />
          </mxGeometry>
        </mxCell>
        <mxCell id="Z9TVlHVPDBwcRvWiJy7N-66" style="edgeStyle=orthogonalEdgeStyle;rounded=0;orthogonalLoop=1;jettySize=auto;html=1;exitX=0.5;exitY=1;exitDx=0;exitDy=0;exitPerimeter=0;" edge="1" parent="1" source="Z9TVlHVPDBwcRvWiJy7N-50" target="Z9TVlHVPDBwcRvWiJy7N-51">
          <mxGeometry relative="1" as="geometry" />
        </mxCell>
        <mxCell id="Z9TVlHVPDBwcRvWiJy7N-75" value="no" style="edgeLabel;html=1;align=center;verticalAlign=middle;resizable=0;points=[];" vertex="1" connectable="0" parent="Z9TVlHVPDBwcRvWiJy7N-66">
          <mxGeometry x="-0.64" y="-2" relative="1" as="geometry">
            <mxPoint as="offset" />
          </mxGeometry>
        </mxCell>
        <mxCell id="Z9TVlHVPDBwcRvWiJy7N-50" value="cidade_destino = &quot;Niterói&quot;" style="strokeWidth=2;html=1;shape=mxgraph.flowchart.decision;whiteSpace=wrap;" vertex="1" parent="1">
          <mxGeometry x="170.25" y="790" width="120" height="100" as="geometry" />
        </mxCell>
        <mxCell id="Z9TVlHVPDBwcRvWiJy7N-59" style="edgeStyle=orthogonalEdgeStyle;rounded=0;orthogonalLoop=1;jettySize=auto;html=1;exitX=1;exitY=0.5;exitDx=0;exitDy=0;exitPerimeter=0;" edge="1" parent="1" source="Z9TVlHVPDBwcRvWiJy7N-51" target="Z9TVlHVPDBwcRvWiJy7N-55">
          <mxGeometry relative="1" as="geometry" />
        </mxCell>
        <mxCell id="Z9TVlHVPDBwcRvWiJy7N-63" value="yes" style="edgeLabel;html=1;align=center;verticalAlign=middle;resizable=0;points=[];" vertex="1" connectable="0" parent="Z9TVlHVPDBwcRvWiJy7N-59">
          <mxGeometry x="-0.0435" y="-3" relative="1" as="geometry">
            <mxPoint y="-4" as="offset" />
          </mxGeometry>
        </mxCell>
        <mxCell id="Z9TVlHVPDBwcRvWiJy7N-72" style="edgeStyle=orthogonalEdgeStyle;rounded=0;orthogonalLoop=1;jettySize=auto;html=1;exitX=0.5;exitY=1;exitDx=0;exitDy=0;exitPerimeter=0;" edge="1" parent="1" source="Z9TVlHVPDBwcRvWiJy7N-51" target="Z9TVlHVPDBwcRvWiJy7N-36">
          <mxGeometry relative="1" as="geometry" />
        </mxCell>
        <mxCell id="Z9TVlHVPDBwcRvWiJy7N-51" value="cidade_destino = &quot;Piracicaba&quot;" style="strokeWidth=2;html=1;shape=mxgraph.flowchart.decision;whiteSpace=wrap;" vertex="1" parent="1">
          <mxGeometry x="170.25" y="920" width="120" height="100" as="geometry" />
        </mxCell>
        <mxCell id="Z9TVlHVPDBwcRvWiJy7N-52" value="distancia = 949" style="rounded=1;whiteSpace=wrap;html=1;absoluteArcSize=1;arcSize=14;strokeWidth=2;" vertex="1" parent="1">
          <mxGeometry x="345.25" y="560" width="100" height="40" as="geometry" />
        </mxCell>
        <mxCell id="Z9TVlHVPDBwcRvWiJy7N-53" value="distancia = 628" style="rounded=1;whiteSpace=wrap;html=1;absoluteArcSize=1;arcSize=14;strokeWidth=2;" vertex="1" parent="1">
          <mxGeometry x="345.25" y="690" width="100" height="40" as="geometry" />
        </mxCell>
        <mxCell id="Z9TVlHVPDBwcRvWiJy7N-54" value="distancia = 424" style="rounded=1;whiteSpace=wrap;html=1;absoluteArcSize=1;arcSize=14;strokeWidth=2;" vertex="1" parent="1">
          <mxGeometry x="345.25" y="820" width="100" height="40" as="geometry" />
        </mxCell>
        <mxCell id="Z9TVlHVPDBwcRvWiJy7N-55" value="distancia = 168" style="rounded=1;whiteSpace=wrap;html=1;absoluteArcSize=1;arcSize=14;strokeWidth=2;" vertex="1" parent="1">
          <mxGeometry x="345.25" y="950" width="100" height="40" as="geometry" />
        </mxCell>
        <mxCell id="Z9TVlHVPDBwcRvWiJy7N-67" style="edgeStyle=orthogonalEdgeStyle;rounded=0;orthogonalLoop=1;jettySize=auto;html=1;exitX=1;exitY=0.5;exitDx=0;exitDy=0;entryX=1;entryY=0.5;entryDx=0;entryDy=0;entryPerimeter=0;" edge="1" parent="1" source="Z9TVlHVPDBwcRvWiJy7N-52" target="Z9TVlHVPDBwcRvWiJy7N-36">
          <mxGeometry relative="1" as="geometry" />
        </mxCell>
        <mxCell id="Z9TVlHVPDBwcRvWiJy7N-69" style="edgeStyle=orthogonalEdgeStyle;rounded=0;orthogonalLoop=1;jettySize=auto;html=1;exitX=1;exitY=0.5;exitDx=0;exitDy=0;entryX=1;entryY=0.5;entryDx=0;entryDy=0;entryPerimeter=0;" edge="1" parent="1" source="Z9TVlHVPDBwcRvWiJy7N-53" target="Z9TVlHVPDBwcRvWiJy7N-36">
          <mxGeometry relative="1" as="geometry" />
        </mxCell>
        <mxCell id="Z9TVlHVPDBwcRvWiJy7N-70" style="edgeStyle=orthogonalEdgeStyle;rounded=0;orthogonalLoop=1;jettySize=auto;html=1;exitX=1;exitY=0.5;exitDx=0;exitDy=0;entryX=1;entryY=0.5;entryDx=0;entryDy=0;entryPerimeter=0;" edge="1" parent="1" source="Z9TVlHVPDBwcRvWiJy7N-54" target="Z9TVlHVPDBwcRvWiJy7N-36">
          <mxGeometry relative="1" as="geometry" />
        </mxCell>
        <mxCell id="Z9TVlHVPDBwcRvWiJy7N-71" style="edgeStyle=orthogonalEdgeStyle;rounded=0;orthogonalLoop=1;jettySize=auto;html=1;exitX=1;exitY=0.5;exitDx=0;exitDy=0;entryX=1;entryY=0.5;entryDx=0;entryDy=0;entryPerimeter=0;" edge="1" parent="1" source="Z9TVlHVPDBwcRvWiJy7N-55" target="Z9TVlHVPDBwcRvWiJy7N-36">
          <mxGeometry relative="1" as="geometry" />
        </mxCell>
        <mxCell id="Z9TVlHVPDBwcRvWiJy7N-84" style="edgeStyle=orthogonalEdgeStyle;rounded=0;orthogonalLoop=1;jettySize=auto;html=1;exitX=0;exitY=0.5;exitDx=0;exitDy=0;exitPerimeter=0;" edge="1" parent="1" source="Z9TVlHVPDBwcRvWiJy7N-80" target="Z9TVlHVPDBwcRvWiJy7N-81">
          <mxGeometry relative="1" as="geometry" />
        </mxCell>
        <mxCell id="Z9TVlHVPDBwcRvWiJy7N-86" value="no" style="edgeLabel;html=1;align=center;verticalAlign=middle;resizable=0;points=[];" vertex="1" connectable="0" parent="Z9TVlHVPDBwcRvWiJy7N-84">
          <mxGeometry x="-0.15" y="-1" relative="1" as="geometry">
            <mxPoint as="offset" />
          </mxGeometry>
        </mxCell>
        <mxCell id="Z9TVlHVPDBwcRvWiJy7N-85" style="edgeStyle=orthogonalEdgeStyle;rounded=0;orthogonalLoop=1;jettySize=auto;html=1;exitX=1;exitY=0.5;exitDx=0;exitDy=0;exitPerimeter=0;" edge="1" parent="1" source="Z9TVlHVPDBwcRvWiJy7N-80" target="Z9TVlHVPDBwcRvWiJy7N-12">
          <mxGeometry relative="1" as="geometry" />
        </mxCell>
        <mxCell id="Z9TVlHVPDBwcRvWiJy7N-87" value="yes" style="edgeLabel;html=1;align=center;verticalAlign=middle;resizable=0;points=[];" vertex="1" connectable="0" parent="Z9TVlHVPDBwcRvWiJy7N-85">
          <mxGeometry x="-0.5294" y="2" relative="1" as="geometry">
            <mxPoint as="offset" />
          </mxGeometry>
        </mxCell>
        <mxCell id="Z9TVlHVPDBwcRvWiJy7N-80" value="distancia = 0" style="strokeWidth=2;html=1;shape=mxgraph.flowchart.decision;whiteSpace=wrap;" vertex="1" parent="1">
          <mxGeometry x="180" y="1180" width="100" height="100" as="geometry" />
        </mxCell>
        <mxCell id="Z9TVlHVPDBwcRvWiJy7N-88" style="edgeStyle=orthogonalEdgeStyle;rounded=0;orthogonalLoop=1;jettySize=auto;html=1;exitX=0.5;exitY=1;exitDx=0;exitDy=0;" edge="1" parent="1" source="Z9TVlHVPDBwcRvWiJy7N-81" target="Z9TVlHVPDBwcRvWiJy7N-82">
          <mxGeometry relative="1" as="geometry" />
        </mxCell>
        <mxCell id="Z9TVlHVPDBwcRvWiJy7N-81" value="custo_aluguel = distancia * 2.2" style="rounded=1;whiteSpace=wrap;html=1;absoluteArcSize=1;arcSize=14;strokeWidth=2;" vertex="1" parent="1">
          <mxGeometry x="40" y="1210" width="100" height="40" as="geometry" />
        </mxCell>
        <mxCell id="Z9TVlHVPDBwcRvWiJy7N-82" value="&lt;div align=&quot;center&quot;&gt;cidade_destino, distancia,&lt;/div&gt;&lt;div align=&quot;center&quot;&gt;custo_aluguel&lt;br&gt;&lt;/div&gt;" style="strokeWidth=2;html=1;shape=mxgraph.flowchart.display;whiteSpace=wrap;align=center;" vertex="1" parent="1">
          <mxGeometry x="40" y="1310" width="100" height="60" as="geometry" />
        </mxCell>
        <mxCell id="Z9TVlHVPDBwcRvWiJy7N-92" style="edgeStyle=orthogonalEdgeStyle;rounded=0;orthogonalLoop=1;jettySize=auto;html=1;exitX=0.5;exitY=1;exitDx=0;exitDy=0;exitPerimeter=0;" edge="1" parent="1" source="Z9TVlHVPDBwcRvWiJy7N-83" target="Z9TVlHVPDBwcRvWiJy7N-2">
          <mxGeometry relative="1" as="geometry" />
        </mxCell>
        <mxCell id="Z9TVlHVPDBwcRvWiJy7N-83" value="" style="verticalLabelPosition=bottom;verticalAlign=top;html=1;shape=mxgraph.flowchart.on-page_reference;" vertex="1" parent="1">
          <mxGeometry x="215" y="1390" width="30" height="30" as="geometry" />
        </mxCell>
        <mxCell id="Z9TVlHVPDBwcRvWiJy7N-90" style="edgeStyle=orthogonalEdgeStyle;rounded=0;orthogonalLoop=1;jettySize=auto;html=1;exitX=0.5;exitY=1;exitDx=0;exitDy=0;exitPerimeter=0;entryX=0;entryY=0.5;entryDx=0;entryDy=0;entryPerimeter=0;" edge="1" parent="1" source="Z9TVlHVPDBwcRvWiJy7N-82" target="Z9TVlHVPDBwcRvWiJy7N-83">
          <mxGeometry relative="1" as="geometry" />
        </mxCell>
        <mxCell id="Z9TVlHVPDBwcRvWiJy7N-91" style="edgeStyle=orthogonalEdgeStyle;rounded=0;orthogonalLoop=1;jettySize=auto;html=1;exitX=0.5;exitY=1;exitDx=0;exitDy=0;exitPerimeter=0;entryX=1;entryY=0.5;entryDx=0;entryDy=0;entryPerimeter=0;" edge="1" parent="1" source="Z9TVlHVPDBwcRvWiJy7N-12" target="Z9TVlHVPDBwcRvWiJy7N-83">
          <mxGeometry relative="1" as="geometry" />
        </mxCell>
        <mxCell id="Z9TVlHVPDBwcRvWiJy7N-98" style="edgeStyle=orthogonalEdgeStyle;rounded=0;orthogonalLoop=1;jettySize=auto;html=1;exitX=0.5;exitY=1;exitDx=0;exitDy=0;exitPerimeter=0;" edge="1" parent="1" source="Z9TVlHVPDBwcRvWiJy7N-96" target="Z9TVlHVPDBwcRvWiJy7N-80">
          <mxGeometry relative="1" as="geometry" />
        </mxCell>
        <mxCell id="Z9TVlHVPDBwcRvWiJy7N-96" value="nome_passageiro" style="strokeWidth=2;html=1;shape=mxgraph.flowchart.display;whiteSpace=wrap;" vertex="1" parent="1">
          <mxGeometry x="180" y="1090" width="100" height="60" as="geometry" />
        </mxCell>
      </root>
    </mxGraphModel>
  </diagram>
</mxfile>
